<?xml version="1.0" encoding="utf-8" ?><svg xmlns="http://www.w3.org/2000/svg" xmlns:xlink="http://www.w3.org/1999/xlink" width="2866" height="1991" viewBox="0 0 2866 1991"><path fill="#050208" transform="matrix(1.21441 0 0 1.21402 -1.90735e-06 0)" d="M857.567 706.415C867.583 692.199 871.729 687.916 880.673 671.889C886.771 660.961 899.94 622.457 904.499 618.68C913.7 618.034 933.422 634.505 941.86 639.737C946.826 642.816 954.629 646.64 955.899 652.47C955.555 654.835 954.882 657.415 955.4 659.545L961.869 662.536C975.591 667.797 980.605 670.628 995.186 671.608C996.321 669.048 997.146 665.594 999.974 664.989C1009.16 663.021 1028.51 672.907 1036.88 676.654C1038.76 677.825 1042.23 680.148 1044.07 681.035C1080.16 702.174 1070.78 761.985 1069.23 797.944C1068.33 816.812 1067.85 835.699 1067.79 854.588C1067.75 862.389 1067.45 880.546 1069.02 887.744L1070.42 888.147C1071.96 886.389 1073.29 884.824 1074.75 882.991C1081.97 869.522 1088.32 855.608 1093.78 841.334C1103.81 821.524 1112.32 795.328 1123.35 773.291C1143.04 733.987 1165.27 697.469 1190.53 661.532C1201 662.243 1208.01 663.414 1218 666.413C1218.97 663.013 1219.58 659.57 1222.7 657.684C1235.31 650.054 1267.42 659.023 1282.04 661.867C1285.51 668.466 1278.15 673.592 1281.74 685.253C1291.41 709.065 1290.77 731.612 1293.85 756.743C1294.68 763.43 1295.29 773.868 1297 780.19C1300.73 821.65 1311.58 862.157 1329.07 899.932C1329.44 882.173 1329.31 855.809 1330.93 838.678L1331.05 839.837C1333.27 862.253 1329.05 885.617 1331.85 907.967C1332.22 910.987 1340.57 912.495 1343.28 916.633L1343.71 919.071L1344.48 919.491L1345.31 917.336C1346.49 927.109 1345.92 942.071 1346.67 953.196C1344.84 954.039 1339.44 960.251 1338.72 961.886C1340.32 968.224 1341.82 972.962 1340.03 979.467C1326.44 988.742 1309.06 999.755 1294.37 1007.04C1289.81 999.548 1283.4 985.896 1279.23 977.693C1274.15 973.979 1272.45 975.703 1266.93 977.671C1257.29 982.895 1249.91 986.715 1239.3 989.371C1230.37 971.362 1221.73 953.219 1213.37 934.945C1209.61 925.588 1203.91 913.504 1199.5 904.309L1194.93 895.25C1189.47 894.522 1186.42 902.352 1183.73 906.734C1177.19 918.114 1172.04 922.137 1178.83 934.634C1180.75 936.771 1181.03 936.728 1181.36 939.642C1180.2 941.122 1180.61 940.905 1179.11 941.889C1175.44 942.505 1175.96 941.838 1173.73 943.977C1173.91 946.558 1173.89 946.374 1175.25 948.596C1182.04 953.561 1204.29 990.982 1208.58 999.513C1188.33 1003.81 1178.98 1012.07 1162.02 1018.31C1157.3 1013.32 1145.81 997.229 1144.07 995.693L1138.83 988.126C1135.83 984.955 1133.44 982.462 1130.76 978.966C1119.81 983.642 1110.72 987.461 1098.74 989.298C1087.28 991.057 1076.93 991.081 1065.79 994.438C1068.75 992.323 1073.9 989.344 1077.14 987.342C1061.14 986.148 1017.69 985.751 1008.18 971.767C1006.87 971.511 1006.47 971.356 1005.32 970.95C973.139 959.61 974.029 945.678 962.349 920.545L962 919.808C959.976 913.638 957.805 900.753 955.664 893.094C948.031 893.191 937.38 893.985 930.575 891.118C924.409 885.293 926.428 847.508 926.476 837.698L926.908 753.654C926.944 746.085 927.757 724.199 925.461 717.937C920.621 722.445 911.204 738.074 905.778 737.217C893.399 735.262 865.83 714.294 857.567 706.415Z"/><path fill="#393C81" transform="matrix(1.21441 0 0 1.21402 -1.90735e-06 0)" d="M1282.04 661.867C1285.51 668.466 1278.15 673.592 1281.74 685.253C1291.41 709.065 1290.77 731.612 1293.85 756.743C1294.68 763.43 1295.29 773.868 1297 780.19C1300.73 821.65 1311.58 862.157 1329.07 899.932C1329.44 882.173 1329.31 855.809 1330.93 838.678L1331.05 839.837C1333.27 862.253 1329.05 885.617 1331.85 907.967C1332.22 910.987 1340.57 912.495 1343.28 916.633L1343.71 919.071L1344.48 919.491L1345.31 917.336C1346.49 927.109 1345.92 942.071 1346.67 953.196C1344.84 954.039 1339.44 960.251 1338.72 961.886C1340.32 968.224 1341.82 972.962 1340.03 979.467C1326.44 988.742 1309.06 999.755 1294.37 1007.04C1289.81 999.548 1283.4 985.896 1279.23 977.693C1274.15 973.979 1272.45 975.703 1266.93 977.671C1269.88 975.62 1271.89 974.121 1274.63 971.806C1273.07 968.131 1271.77 971.228 1269.05 964.875C1274.33 964.262 1280.25 966.536 1285.68 965.713C1305.21 962.953 1328.45 940.819 1323.66 919.787C1322.29 913.787 1310.53 900.148 1306.48 894.424C1286.51 866.251 1274.61 833.164 1272.05 798.728C1270.29 768.48 1270.01 732.153 1269.76 701.864C1269.31 696.619 1267.63 691.451 1266.22 686.358C1270.81 687.347 1274.37 688.969 1277.91 686.738C1278.89 684.773 1281.36 665.815 1282.04 661.867Z"/><path fill="#F5AE7F" transform="matrix(1.21441 0 0 1.21402 -1.90735e-06 0)" d="M1291.19 776.419C1299.92 808.085 1306.84 868.319 1326.33 899.497C1327.02 900.588 1327.67 900.186 1329.07 899.932C1329.44 882.173 1329.31 855.809 1330.93 838.678L1331.05 839.837C1333.27 862.253 1329.05 885.617 1331.85 907.967C1332.22 910.987 1340.57 912.495 1343.28 916.633L1343.71 919.071L1344.48 919.491L1345.31 917.336C1346.49 927.109 1345.92 942.071 1346.67 953.196C1344.84 954.039 1339.44 960.251 1338.72 961.886L1336.48 955.299C1334.24 949.735 1337.73 942.606 1337.43 936.104C1337.25 932.209 1336.98 929.791 1336.37 925.935C1333.03 921.785 1325.2 912.658 1323.9 908.109C1324.13 907.618 1325.6 904.283 1325.47 904.071C1310.88 880.195 1298.94 857.202 1294.1 829.052C1291.14 811.831 1291.13 794.319 1291.19 776.419Z"/><path fill="#B4B7FB" transform="matrix(1.21441 0 0 1.21402 -1.90735e-06 0)" d="M1336.48 955.299L1338.72 961.886C1340.32 968.224 1341.82 972.962 1340.03 979.467C1326.44 988.742 1309.06 999.755 1294.37 1007.04C1289.81 999.548 1283.4 985.896 1279.23 977.693L1276.66 973.38L1277.53 972.219C1303.24 980.844 1319.29 976.879 1336.48 955.299Z"/><path fill="#272C9F" transform="matrix(1.21441 0 0 1.21402 -1.90735e-06 0)" d="M1269.76 701.864L1270.63 695.522C1271.92 695.988 1273.97 696.414 1274.09 698.061C1274.77 707.337 1272.12 722.1 1271.63 731.566C1270.98 744.084 1280.33 789.939 1279.33 797.272C1276.47 799.347 1276.4 798.613 1272.05 798.728C1270.29 768.48 1270.01 732.153 1269.76 701.864Z"/><path fill="#B4B7FB" transform="matrix(1.21441 0 0 1.21402 -1.90735e-06 0)" d="M1218 666.413C1218.97 663.013 1219.58 659.57 1222.7 657.684C1235.31 650.054 1267.42 659.023 1282.04 661.867C1281.36 665.815 1278.89 684.773 1277.91 686.738C1274.37 688.969 1270.81 687.347 1266.22 686.358C1259.87 674.345 1251.73 673.945 1239.78 676.333C1226.08 683.366 1218.84 691.585 1207.13 699.909C1197.99 709.451 1189.49 717.143 1180.98 727.73C1156.33 758.385 1138.34 792.591 1121.73 827.939C1115.08 842.092 1099.26 877.607 1090.69 888.909C1085.38 891.49 1078.39 894.703 1072.3 894.102C1070.54 895.826 1071.59 895.423 1069.27 895.721C1071.53 891.024 1073 887.93 1074.75 882.991C1081.97 869.522 1088.32 855.608 1093.78 841.334C1103.81 821.524 1112.32 795.328 1123.35 773.291C1143.04 733.987 1165.27 697.469 1190.53 661.532C1201 662.243 1208.01 663.414 1218 666.413Z"/><path fill="#8186F8" transform="matrix(1.21441 0 0 1.21402 -1.90735e-06 0)" d="M1207.13 699.909C1209.5 692.108 1217.14 684.458 1221.76 677.859C1221.73 674.923 1221.7 672.453 1221.68 670.447L1222.84 669.281C1228.33 670.703 1234.54 673.88 1239.78 676.333C1226.08 683.366 1218.84 691.585 1207.13 699.909Z"/><path fill="#FAD0B3" transform="matrix(1.21441 0 0 1.21402 -1.90735e-06 0)" d="M857.567 706.415C867.583 692.199 871.729 687.916 880.673 671.889C886.771 660.961 899.94 622.457 904.499 618.68C913.7 618.034 933.422 634.505 941.86 639.737C946.826 642.816 954.629 646.64 955.899 652.47C955.555 654.835 954.882 657.415 955.4 659.545L951.881 659.293C947.259 664.218 942.217 679.604 939.759 686.557C939.941 687.113 940.123 687.669 940.305 688.224C940.315 694.525 938.897 700.191 938.316 706.451C937.922 703.284 937.995 699.885 935.888 697.698C933.178 699.295 929.052 710.338 927.014 714.135L926.195 717.496L925.461 717.937C920.621 722.445 911.204 738.074 905.778 737.217C893.399 735.262 865.83 714.294 857.567 706.415Z"/><path fill="#B194C6" transform="matrix(1.21441 0 0 1.21402 -1.90735e-06 0)" d="M927.014 714.135C926.89 699.335 925.444 671.096 928.852 656.883C932.178 643.009 945.821 666.172 955.899 652.47C955.555 654.835 954.882 657.415 955.4 659.545L951.881 659.293C947.259 664.218 942.217 679.604 939.759 686.557C939.941 687.113 940.123 687.669 940.305 688.224C940.315 694.525 938.897 700.191 938.316 706.451C937.922 703.284 937.995 699.885 935.888 697.698C933.178 699.295 929.052 710.338 927.014 714.135Z"/><path fill="#FAD0B3" transform="matrix(1.21441 0 0 1.21402 -1.90735e-06 0)" d="M1138.83 988.126C1136.43 983.817 1131.7 977.392 1134.33 972.758C1137.4 970.901 1144.27 966.882 1147.14 964.609C1153.04 959.933 1159.79 947.574 1167.6 945.879C1171.28 945.082 1172.44 946.696 1175.25 948.596C1182.04 953.561 1204.29 990.982 1208.58 999.513C1188.33 1003.81 1178.98 1012.07 1162.02 1018.31C1157.3 1013.32 1145.81 997.229 1144.07 995.693L1138.83 988.126Z"/><path fill="#B4B7FB" transform="matrix(1.21441 0 0 1.21402 -1.90735e-06 0)" d="M927.014 714.135C929.052 710.338 933.178 699.295 935.888 697.698C937.995 699.885 937.922 703.284 938.316 706.451C933.577 756.846 942.759 843.836 955.664 893.094C948.031 893.191 937.38 893.985 930.575 891.118C924.409 885.293 926.428 847.508 926.476 837.698L926.908 753.654C926.944 746.085 927.757 724.199 925.461 717.937L926.195 717.496L927.014 714.135Z"/><path fill="#393C81" transform="matrix(1.21441 0 0 1.21402 -1.90735e-06 0)" d="M1179.85 845.841C1183.32 837.591 1190.48 819.256 1198.17 814.878C1201.31 815.151 1200.25 814.979 1203.02 818.268C1206.69 829.474 1207.37 838.687 1206.88 850.455L1206.83 855.997C1203.64 857.173 1203.44 858.227 1202.09 861.337C1199.74 866.732 1192.28 883.055 1195.07 888.945C1198.77 896.761 1199.9 894.178 1199.5 904.309L1194.93 895.25C1189.47 894.522 1186.42 902.352 1183.73 906.734C1177.19 918.114 1172.04 922.137 1178.83 934.634C1176.25 934.153 1158.94 923.546 1151.4 921.262L1153.19 918.137L1158.34 903.25C1161.94 893.181 1166.11 882.182 1169.03 871.997C1172.57 862.78 1175.64 854.785 1179.85 845.841Z"/><path fill="#8186F8" transform="matrix(1.21441 0 0 1.21402 -1.90735e-06 0)" d="M1205.37 835.337C1205.66 841.131 1206.01 844.723 1206.88 850.455L1206.83 855.997C1203.64 857.173 1203.44 858.227 1202.09 861.337C1199.74 866.732 1192.28 883.055 1195.07 888.945C1198.77 896.761 1199.9 894.178 1199.5 904.309L1194.93 895.25C1194.13 892.031 1192.81 888.754 1190.25 886.778C1185.87 888.533 1183.63 893.76 1181.01 898.128C1184.28 877.641 1195.16 853.481 1205.37 835.337Z"/><path fill="#272C9F" transform="matrix(1.21441 0 0 1.21402 -1.90735e-06 0)" d="M1179.85 845.841C1183.32 837.591 1190.48 819.256 1198.17 814.878C1201.31 815.151 1200.25 814.979 1203.02 818.268C1203.02 825.96 1188.62 855.118 1184.74 863.209C1182.32 857.441 1179.72 852.182 1179.85 845.841Z"/><path fill="#515151" transform="matrix(1.21441 0 0 1.21402 -1.90735e-06 0)" d="M1153.19 918.137C1163.43 915.087 1173.92 909.449 1183.73 906.734C1177.19 918.114 1172.04 922.137 1178.83 934.634C1176.25 934.153 1158.94 923.546 1151.4 921.262L1153.19 918.137Z"/><path fill="#272C9F" transform="matrix(1.21441 0 0 1.21402 -1.90735e-06 0)" d="M1169.03 871.997C1172.57 871.956 1172.66 871.998 1175.65 874.059C1178.32 880.82 1165.92 904.117 1161.43 906.594L1159.44 906.218C1158.93 905.058 1158.54 904.459 1158.34 903.25C1161.94 893.181 1166.11 882.182 1169.03 871.997Z"/><path fill="#515151" transform="matrix(1.21441 0 0 1.21402 -1.90735e-06 0)" d="M1044.07 681.035C1080.16 702.174 1070.78 761.985 1069.23 797.944C1068.33 816.812 1067.85 835.699 1067.79 854.588C1067.75 862.389 1067.45 880.546 1069.02 887.744L1070.42 888.147C1071.96 886.389 1073.29 884.824 1074.75 882.991C1073 887.93 1071.53 891.024 1069.27 895.721C1068.19 897.241 1068.08 897.117 1067.45 898.819L1063.35 900.607L1061.97 899.99C1056.99 887.193 1054.36 799.799 1053.85 781.658C1055.16 755.566 1052.58 726.257 1054.11 699.936C1054.79 699.684 1055.64 699.072 1056.29 698.658C1056.34 693.865 1047.64 685.094 1044.07 681.035Z"/><path fill="#393C81" transform="matrix(1.21441 0 0 1.21402 -1.90735e-06 0)" d="M1151.4 921.262C1158.94 923.546 1176.25 934.153 1178.83 934.634C1180.75 936.771 1181.03 936.728 1181.36 939.642C1180.2 941.122 1180.61 940.905 1179.11 941.889C1175.44 942.505 1175.96 941.838 1173.73 943.977C1173.91 946.558 1173.89 946.374 1175.25 948.596C1172.44 946.696 1171.28 945.082 1167.6 945.879C1159.79 947.574 1153.04 959.933 1147.14 964.609C1144.27 966.882 1137.4 970.901 1134.33 972.758C1131.7 977.392 1136.43 983.817 1138.83 988.126C1135.83 984.955 1133.44 982.462 1130.76 978.966C1119.81 983.642 1110.72 987.461 1098.74 989.298C1087.28 991.057 1076.93 991.081 1065.79 994.438C1068.75 992.323 1073.9 989.344 1077.14 987.342C1061.14 986.148 1017.69 985.751 1008.18 971.767C1048.63 982.379 1101.79 980.557 1134.6 950.5C1143.11 942.712 1147.17 931.728 1151.4 921.262Z"/><path fill="#B4B7FB" transform="matrix(1.21441 0 0 1.21402 -1.90735e-06 0)" d="M1199.5 904.309C1199.9 894.178 1198.77 896.761 1195.07 888.945C1192.28 883.055 1199.74 866.732 1202.09 861.337C1203.44 858.227 1203.64 857.173 1206.83 855.997C1211.24 893.85 1225.57 955.381 1269.05 964.875C1271.77 971.228 1273.07 968.131 1274.63 971.806C1271.89 974.121 1269.88 975.62 1266.93 977.671C1257.29 982.895 1249.91 986.715 1239.3 989.371C1230.37 971.362 1221.73 953.219 1213.37 934.945C1209.61 925.588 1203.91 913.504 1199.5 904.309Z"/><path fill="#393C81" transform="matrix(1.21441 0 0 1.21402 -1.90735e-06 0)" d="M1043.09 692.362L1043.79 692.745C1047.4 694.697 1051.87 695.524 1053.65 697.733L1054.11 699.936C1052.58 726.257 1055.16 755.566 1053.85 781.658C1054.36 799.799 1056.99 887.193 1061.97 899.99L1063.35 900.607L1067.45 898.819C1068.56 903.038 1068.82 905.733 1072.96 907.886C1071.34 908.346 1069.65 908.825 1067.95 908.733C1064.15 908.527 1060.68 906.403 1058.18 903.637C1038.39 881.757 1048.14 776.966 1050.17 746.208C1049.98 725.521 1051.12 711.913 1043.09 692.362Z"/><path fill="#B4B7FB" transform="matrix(1.21441 0 0 1.21402 -1.90735e-06 0)" d="M995.186 671.608C996.321 669.048 997.146 665.594 999.974 664.989C1009.16 663.021 1028.51 672.907 1036.88 676.654C1038.76 677.825 1042.23 680.148 1044.07 681.035C1047.64 685.094 1056.34 693.865 1056.29 698.658C1055.64 699.072 1054.79 699.684 1054.11 699.936L1053.65 697.733C1051.87 695.524 1047.4 694.697 1043.79 692.745L1043.09 692.362C1037.35 681.646 1011.56 678.744 1000.7 677.663C998.405 675.911 990.589 676.77 987.281 676.915C984.96 675.415 985.628 676.424 984.994 673.948L985.811 673.413C990.154 673.597 991.187 673.314 995.186 671.608Z"/><path fill="#B4B7FB" transform="matrix(1.21441 0 0 1.21402 -1.90735e-06 0)" d="M940.305 688.224C940.123 687.669 939.941 687.113 939.759 686.557C942.217 679.604 947.259 664.218 951.881 659.293L955.4 659.545L961.869 662.536C960.852 668.89 960.473 674.318 960.008 680.751C954.919 682.24 944.531 685.11 940.305 688.224Z"/><path fill="#8186F8" transform="matrix(1.21441 0 0 1.21402 -1.90735e-06 0)" d="M961.869 662.536C975.591 667.797 980.605 670.628 995.186 671.608C991.187 673.314 990.154 673.597 985.811 673.413L984.994 673.948C985.628 676.424 984.96 675.415 987.281 676.915C990.589 676.77 998.405 675.911 1000.7 677.663C983.574 677.79 976.778 677.316 960.008 680.751C960.473 674.318 960.852 668.89 961.869 662.536Z"/><path fill="#8186F8" transform="matrix(1.21441 0 0 1.21402 -1.90735e-06 0)" d="M1069.27 895.721C1071.59 895.423 1070.54 895.826 1072.3 894.102C1078.39 894.703 1085.38 891.49 1090.69 888.909C1085.44 898.001 1082.28 902.439 1072.96 907.886C1068.82 905.733 1068.56 903.038 1067.45 898.819C1068.08 897.117 1068.19 897.241 1069.27 895.721Z"/><path fill="#8186F8" transform="matrix(1.21441 0 0 1.21402 -1.90735e-06 0)" d="M985.215 679.812L996.562 679.982C1001.45 680.41 1011.87 681.227 1016.19 682.6C1024.39 684.547 1029.26 686.03 1036.54 690.483C1038.68 694.598 1040.92 699.234 1042.19 703.606C1045.43 714.786 1046.3 750.265 1044.1 761.216C1042.67 806.605 1039.8 835.578 1043.83 882.315C1045.26 887.881 1047.16 896.649 1050.5 901.026C1055.04 906.288 1056.19 907.853 1062.8 910.616C1072.1 911.511 1075.3 910.483 1082.75 905.836C1091.79 906.436 1095.83 906.644 1105.06 905.784L1109.78 906.537C1118.95 907.858 1129.26 909.386 1138.47 908.978C1145.52 893.862 1151.94 878.46 1157.71 862.814C1161.04 850.196 1171.41 824.225 1179.63 814.114L1179.64 816.348C1182.46 817.275 1185.09 818.286 1188.05 818.628C1178.62 834.09 1174.12 848.641 1166.45 864.161L1165.46 866.763C1163.04 875.578 1150.03 915.938 1145.72 922.045C1131.95 957.745 1107.95 969.272 1070.85 974.247C1053.73 976.162 1040.93 975.836 1024.03 973.141C1018.28 971.972 1012.11 970.02 1006.43 968.356C999.374 965.144 996.192 963.776 989.968 959.31C982.678 954.28 978.886 947.711 975.105 939.917C969.746 927.739 964.212 908.711 961.342 895.815C959.038 886.675 955.166 871.257 954.282 862.173C952.183 854.045 950.094 838.614 948.902 830.209C943.324 792.126 941.138 753.622 942.371 715.152C943.247 705.852 944.165 698.614 945.7 689.406C950.419 686.702 954.98 685.009 960.013 682.984C965.811 682.827 975.988 680.179 985.215 679.812Z"/><path fill="#B4B7FB" transform="matrix(1.21441 0 0 1.21402 -1.90735e-06 0)" d="M985.215 679.812L996.562 679.982C1001.45 680.41 1011.87 681.227 1016.19 682.6C1024.39 684.547 1029.26 686.03 1036.54 690.483C1038.68 694.598 1040.92 699.234 1042.19 703.606C1045.43 714.786 1046.3 750.265 1044.1 761.216C1042.67 806.605 1039.8 835.578 1043.83 882.315C1045.26 887.881 1047.16 896.649 1050.5 901.026C1050.42 903.872 1050.8 907.895 1049.14 909.924L1047.03 908.809C1041.3 910.077 1026.85 917.275 1020.94 920.069C1017.08 890.404 1014.4 857.064 1013.73 827.343C1013.02 796.364 1015.07 765.005 1016.01 734.022C1016.48 721.423 1016.84 708.82 1017.09 696.214C1009.29 695.135 1005.52 695.503 997.565 696.132C992.946 696.559 988.316 697.122 983.689 697.035C979.647 697.053 975.913 697.036 971.857 696.872L972.018 696.146L983.835 691.548C983.924 686.28 984.17 684.928 985.215 679.812Z"/><path fill="#FBFBFB" transform="matrix(1.21441 0 0 1.21402 -1.90735e-06 0)" d="M985.215 679.812L996.562 679.982C1001.45 680.41 1011.87 681.227 1016.19 682.6C1024.39 684.547 1029.26 686.03 1036.54 690.483C1038.68 694.598 1040.92 699.234 1042.19 703.606C1045.43 714.786 1046.3 750.265 1044.1 761.216C1043.73 756.079 1045.11 735.041 1042.51 732.583C1039.51 732.844 1038.11 733.066 1035.23 732.195C1037.26 747.25 1038.32 752.77 1036.99 767.965L1036.35 768.741C1031.01 758.709 1028.89 744.276 1027.62 732.924C1023.76 733.317 1019.88 733.683 1016.01 734.022C1016.48 721.423 1016.84 708.82 1017.09 696.214C1009.29 695.135 1005.52 695.503 997.565 696.132C992.946 696.559 988.316 697.122 983.689 697.035C979.647 697.053 975.913 697.036 971.857 696.872L972.018 696.146L983.835 691.548C983.924 686.28 984.17 684.928 985.215 679.812Z"/><path fill="#8186F8" transform="matrix(1.21441 0 0 1.21402 -1.90735e-06 0)" d="M1016.19 682.6C1024.39 684.547 1029.26 686.03 1036.54 690.483C1038.68 694.598 1040.92 699.234 1042.19 703.606C1045.43 714.786 1046.3 750.265 1044.1 761.216C1043.73 756.079 1045.11 735.041 1042.51 732.583C1039.51 732.844 1038.11 733.066 1035.23 732.195C1032.83 716.569 1033.12 696.288 1018 688.227C1017.62 686.538 1016.75 685.494 1015.81 683.957L1016.19 682.6Z"/><path fill="#8186F8" transform="matrix(1.21441 0 0 1.21402 -1.90735e-06 0)" d="M1017.09 696.214C1024.53 703.329 1025.72 722.529 1027.62 732.924C1023.76 733.317 1019.88 733.683 1016.01 734.022C1016.48 721.423 1016.84 708.82 1017.09 696.214Z"/><path fill="#5B62F4" transform="matrix(1.21441 0 0 1.21402 -1.90735e-06 0)" d="M996.562 679.982C1001.45 680.41 1011.87 681.227 1016.19 682.6L1015.81 683.957C1016.75 685.494 1017.62 686.538 1018 688.227C1010.87 687.572 1006.75 687.755 999.693 688.427C996.304 686.915 996.939 683.432 996.562 679.982Z"/><path fill="#8186F8" transform="matrix(1.21441 0 0 1.21402 -1.90735e-06 0)" d="M985.215 679.812L996.562 679.982C996.939 683.432 996.304 686.915 999.693 688.427C994.508 689.393 988.956 690.381 983.835 691.548C983.924 686.28 984.17 684.928 985.215 679.812Z"/><path fill="#FBFBFB" transform="matrix(1.21441 0 0 1.21402 -1.90735e-06 0)" d="M1047.03 908.809C1046.11 908.136 1044.95 907.206 1044.39 906.215C1030.11 880.872 1029.82 859.047 1033.49 832.524L1034.7 834.017C1035.14 841.007 1041.52 878.448 1043.83 882.315C1045.26 887.881 1047.16 896.649 1050.5 901.026C1050.42 903.872 1050.8 907.895 1049.14 909.924L1047.03 908.809Z"/><path fill="#B4B7FB" transform="matrix(1.21441 0 0 1.21402 -1.90735e-06 0)" d="M983.888 739.088C988.415 737.393 991.376 736.99 996.061 736.163C996.23 789.222 994.853 842.275 1000.21 895.12C1001.3 905.88 1002.46 916.64 1003.61 927.393C998.02 930.79 981.362 938.083 975.105 939.917C969.746 927.739 964.212 908.711 961.342 895.815C962.907 894.24 982.922 891.581 988.561 890.001C985.947 839.735 984.389 789.42 983.888 739.088Z"/><path fill="#5B62F4" transform="matrix(1.21441 0 0 1.21402 -1.90735e-06 0)" d="M960.013 682.984C965.811 682.827 975.988 680.179 985.215 679.812C984.17 684.928 983.924 686.28 983.835 691.548L972.018 696.146L971.857 696.872C975.913 697.036 979.647 697.053 983.689 697.035C983.788 702.874 984.49 734.428 983.329 738.946C972.557 741.935 966.191 744.372 957.868 736.684L957.761 735.994C952.213 729.081 948.936 721.785 943.871 714.855L942.371 715.152C943.247 705.852 944.165 698.614 945.7 689.406C950.419 686.702 954.98 685.009 960.013 682.984Z"/><path fill="#8186F8" transform="matrix(1.21441 0 0 1.21402 -1.90735e-06 0)" d="M960.013 682.984C960.148 701.653 958.34 717.75 957.761 735.994C952.213 729.081 948.936 721.785 943.871 714.855L942.371 715.152C943.247 705.852 944.165 698.614 945.7 689.406C950.419 686.702 954.98 685.009 960.013 682.984Z"/><path fill="#B4B7FB" transform="matrix(1.21441 0 0 1.21402 -1.90735e-06 0)" d="M1136.03 924.976C1139.93 923.342 1141.56 922.969 1145.72 922.045C1131.95 957.745 1107.95 969.272 1070.85 974.247L1068.64 953.068C1091.78 941.799 1112.03 934.123 1136.03 924.976Z"/><path fill="#B4B7FB" transform="matrix(1.21441 0 0 1.21402 -1.90735e-06 0)" d="M942.371 715.152L943.871 714.855C948.936 721.785 952.213 729.081 957.761 735.994L957.868 736.684C954.335 760.842 955.394 797.801 954.465 822.628C954.041 833.958 956.038 851.478 954.282 862.173C952.183 854.045 950.094 838.614 948.902 830.209C943.324 792.126 941.138 753.622 942.371 715.152Z"/><path fill="#B4B7FB" transform="matrix(1.21441 0 0 1.21402 -1.90735e-06 0)" d="M1105.06 905.784L1109.78 906.537C1118.95 907.858 1129.26 909.386 1138.47 908.978L1136.75 915.342C1135 915.052 1130.92 914.375 1129.3 914.836C1108.86 920.668 1085.86 930.538 1066.5 938.918C1065.42 929.464 1064.19 920.029 1062.8 910.616C1072.1 911.511 1075.3 910.483 1082.75 905.836C1091.79 906.436 1095.83 906.644 1105.06 905.784Z"/><path fill="#FBFBFB" transform="matrix(1.21441 0 0 1.21402 -1.90735e-06 0)" d="M1179.63 814.114L1179.64 816.348C1182.46 817.275 1185.09 818.286 1188.05 818.628C1178.62 834.09 1174.12 848.641 1166.45 864.161L1165.46 866.763C1157.65 878.038 1152.61 903.989 1139.81 918.496L1135.1 923.855C1135.69 921.667 1136.3 917.709 1136.75 915.342L1138.47 908.978C1145.52 893.862 1151.94 878.46 1157.71 862.814C1161.04 850.196 1171.41 824.225 1179.63 814.114Z"/><path fill="#B4B7FB" transform="matrix(1.21441 0 0 1.21402 -1.90735e-06 0)" d="M1166.45 864.161C1166.78 858.175 1176.64 822.37 1179.64 816.348C1182.46 817.275 1185.09 818.286 1188.05 818.628C1178.62 834.09 1174.12 848.641 1166.45 864.161Z"/><path fill="#5B62F4" transform="matrix(1.21441 0 0 1.21402 -1.90735e-06 0)" d="M997.565 696.132C1005.52 695.503 1009.29 695.135 1017.09 696.214C1016.84 708.82 1016.48 721.423 1016.01 734.022C1009.86 734.586 1002.8 735.061 996.756 735.925C995.41 731.094 996.312 701.424 997.565 696.132Z"/><path fill="#5B62F4" transform="matrix(1.21441 0 0 1.21402 -1.90735e-06 0)" d="M1066.5 938.758C1067.23 943.47 1068.06 948.171 1068.36 952.922C1060.57 956.507 1029.94 968.968 1024.03 973.141C1018.28 971.972 1012.11 970.02 1006.43 968.356L1009.36 967.831C1028.85 957.332 1046.49 948.096 1066.5 938.758Z"/><path fill="#B4B7FB" transform="matrix(1.21441 0 0 1.21402 -1.90735e-06 0)" d="M1007.23 955.588C1008.07 959.646 1008.78 963.729 1009.36 967.831L1006.43 968.356C999.374 965.144 996.192 963.776 989.968 959.31C994.042 957.386 1002.42 956.511 1007.23 955.588Z"/><path fill="#5B62F4" transform="matrix(1.21441 0 0 1.21402 -1.90735e-06 0)" d="M1018.49 920.956C1019.69 920.831 1018.95 920.786 1020.59 921.628C1022.66 929.683 1022.01 941.97 1021.72 950.548C1017.23 952.799 1013.11 953.832 1008.31 955.239C1006.4 952.636 1004.28 932.562 1003.69 927.778L1018.49 920.956Z"/><path fill="#8186F8" transform="matrix(1.21441 0 0 1.21402 -1.90735e-06 0)" d="M1244.68 678.029C1254.77 675.231 1259.64 682.605 1262.64 691.208C1265.62 701.261 1264.88 707.418 1264.4 717.803C1265.49 739.032 1266.12 760.283 1266.3 781.54C1266.62 787.37 1266.92 792.618 1266.85 798.456C1267.6 805.236 1268.74 813.488 1268.98 820.184L1270.24 824.804C1281.95 864.848 1288.63 876.574 1312.6 910.347C1317.79 918.236 1320.25 922.492 1318.01 932.423C1315.09 945.413 1303.4 956.017 1291.79 961.269C1284.83 963.783 1278.47 963.95 1271.17 962.796C1257.71 959.553 1249.27 951.157 1240.55 941.035C1222.94 918.066 1214.54 886.404 1212.25 857.698C1211.33 846.168 1212.35 834.665 1209.77 823.252L1209.41 821.738C1204.83 809.779 1195.41 807 1188.05 818.628C1185.09 818.286 1182.46 817.275 1179.64 816.348L1179.63 814.114C1171.41 824.225 1161.04 850.196 1157.71 862.814C1151.94 878.46 1145.52 893.862 1138.47 908.978C1129.26 909.386 1118.95 907.858 1109.78 906.537L1105.06 905.784C1095.83 906.644 1091.79 906.436 1082.75 905.836C1089 900.103 1095.26 892.474 1099.19 884.961C1105.09 875.223 1115.96 851.115 1121.14 840.047C1140.01 799.695 1159.73 759.647 1188.59 725.257C1192.32 718.731 1209.44 703.583 1215.82 698.064C1216.58 697.02 1222.09 692.963 1223.48 691.895L1235.85 683.525C1238.54 681.565 1241.8 679.744 1244.68 678.029Z"/><path fill="#5B62F4" transform="matrix(1.21441 0 0 1.21402 -1.90735e-06 0)" d="M1244.68 678.029C1254.77 675.231 1259.64 682.605 1262.64 691.208C1265.62 701.261 1264.88 707.418 1264.4 717.803C1265.49 739.032 1266.12 760.283 1266.3 781.54C1266.62 787.37 1266.92 792.618 1266.85 798.456C1256.77 796.367 1248.74 794.675 1238.67 792.171C1237.13 783.063 1235.41 773.986 1233.52 764.945C1229.95 771.158 1226.29 777.882 1222.19 783.709C1220.41 774.748 1219.37 763.104 1218.17 753.809L1231.89 753.985C1229.59 740.531 1228.1 726.673 1225.78 713.035C1223.98 715.813 1220.04 722.617 1217.26 723.776C1217.28 718.154 1217.93 702.187 1215.82 698.064C1216.58 697.02 1222.09 692.963 1223.48 691.895L1235.85 683.525C1238.54 681.565 1241.8 679.744 1244.68 678.029Z"/><path fill="#8186F8" transform="matrix(1.21441 0 0 1.21402 -1.90735e-06 0)" d="M1264.4 717.803C1265.49 739.032 1266.12 760.283 1266.3 781.54C1266.08 784.446 1266.54 785.547 1265.05 787.408C1261.44 782.025 1259.55 764.972 1256.73 762.118L1255.46 765.234C1253.9 756.001 1252.19 733.779 1253.62 724.757C1253.97 725.763 1254.26 728.46 1254.42 729.658L1255.54 730.475L1257.02 729.753C1259.26 725.396 1261.7 721.869 1264.4 717.803Z"/><path fill="#FBFBFB" transform="matrix(1.21441 0 0 1.21402 -1.90735e-06 0)" d="M1255.46 765.234C1256.13 770.02 1257.82 775.718 1254.3 779.51L1252.53 779.178C1245.71 770.881 1243.8 734.105 1247.53 723.131C1248.79 719.414 1250.84 705.27 1252.29 703.404L1253.07 705.998C1250.75 712.976 1252.28 717.495 1253.62 724.757C1252.19 733.779 1253.9 756.001 1255.46 765.234Z"/><path fill="#4249F3" transform="matrix(1.21441 0 0 1.21402 -1.90735e-06 0)" d="M1235.85 683.525C1238.63 684.755 1241.29 685.251 1242.3 687.47C1238.23 695.045 1231.03 705.516 1225.93 712.743C1225.11 705.824 1224.21 698.814 1223.48 691.895L1235.85 683.525Z"/><path fill="#B4B7FB" transform="matrix(1.21441 0 0 1.21402 -1.90735e-06 0)" d="M1244.68 678.029C1254.77 675.231 1259.64 682.605 1262.64 691.208C1258.21 690.047 1251.31 688.625 1247.61 686.095C1244.33 683.849 1245.1 682.29 1244.68 678.029Z"/><path fill="#B4B7FB" transform="matrix(1.21441 0 0 1.21402 -1.90735e-06 0)" d="M1209.41 821.738L1212.91 820.119C1220.54 840.083 1228.7 859.839 1237.38 879.366C1241.51 888.448 1255.05 916.027 1257.44 924.093C1250.97 930.085 1246.49 934.616 1240.55 941.035C1222.94 918.066 1214.54 886.404 1212.25 857.698C1211.33 846.168 1212.35 834.665 1209.77 823.252L1209.41 821.738Z"/><path fill="#B4B7FB" transform="matrix(1.21441 0 0 1.21402 -1.90735e-06 0)" d="M1196.03 759.17C1198.8 778.988 1202.38 788.845 1208.73 807.906C1201.39 807.955 1182.93 807.332 1179.63 814.114C1171.41 824.225 1161.04 850.196 1157.71 862.814C1151.7 863.072 1148.67 864.762 1143.09 867.023C1161.41 830.962 1176.45 794.846 1196.03 759.17Z"/><path fill="#B4B7FB" transform="matrix(1.21441 0 0 1.21402 -1.90735e-06 0)" d="M1188.59 725.257C1188.47 729.053 1177.56 746.3 1174.84 750.742C1150 791.449 1134.67 836.875 1113.85 879.502L1113.27 880.154C1110.14 881.335 1101.96 884.732 1099.19 884.961C1105.09 875.223 1115.96 851.115 1121.14 840.047C1140.01 799.695 1159.73 759.647 1188.59 725.257Z"/><path fill="#5B62F4" transform="matrix(1.21441 0 0 1.21402 -1.90735e-06 0)" d="M1284 903.157C1289.75 904.61 1293.23 905.358 1298.64 907.831C1299.91 911.072 1301.24 914.755 1302.72 917.863C1292.83 922.4 1285.81 924.6 1275.14 926.69C1280.79 937.868 1287.08 949.754 1291.79 961.269C1284.83 963.783 1278.47 963.95 1271.17 962.796L1273.23 962.062C1273.57 957.228 1260.82 930.402 1257.97 924.043C1259.8 921.836 1265.83 916.36 1268.15 914.191L1268.29 913.405L1284 903.157Z"/><path fill="#4249F3" transform="matrix(1.21441 0 0 1.21402 -1.90735e-06 0)" d="M1268.15 914.191C1271.34 915.717 1273.55 922.239 1274.97 925.722C1270.73 924.463 1269.04 918.284 1268.15 914.191Z"/><path fill="#5B62F4" transform="matrix(1.21441 0 0 1.21402 -1.90735e-06 0)" d="M1113.85 879.502C1123.74 875.509 1133.24 871.317 1143.04 867.242C1137.78 878.625 1132.26 889.344 1131.55 902.078C1122.65 904.803 1117.94 904.623 1109.78 906.537L1105.06 905.784C1095.83 906.644 1091.79 906.436 1082.75 905.836C1089 900.103 1095.26 892.474 1099.19 884.961C1101.96 884.732 1110.14 881.335 1113.27 880.154L1113.85 879.502Z"/><path fill="#8186F8" transform="matrix(1.21441 0 0 1.21402 -1.90735e-06 0)" d="M1113.27 880.154C1110.49 885.846 1102.15 900.127 1105.06 905.784C1095.83 906.644 1091.79 906.436 1082.75 905.836C1089 900.103 1095.26 892.474 1099.19 884.961C1101.96 884.732 1110.14 881.335 1113.27 880.154Z"/><path fill="#B4B7FB" transform="matrix(1.21441 0 0 1.21402 -1.90735e-06 0)" d="M1222 785.07C1227.3 787.756 1235.7 790.584 1238.67 792.171C1240.21 798.52 1241.51 805.776 1242.83 812.242C1233.17 809.441 1220.42 808.516 1210.28 807.838L1222 785.07Z"/><path fill="#FBFBFB" transform="matrix(1.21441 0 0 1.21402 -1.90735e-06 0)" d="M1298.64 907.831L1298.44 904.026L1299.79 903.073C1304.24 904.594 1307.04 909.091 1309.21 913.072C1313.98 926.978 1310.41 948.92 1293.83 952.139L1293.01 951.642C1292.53 939.236 1308.5 938.688 1302.72 917.863C1301.24 914.755 1299.91 911.072 1298.64 907.831Z"/><path fill="#FBFBFB" transform="matrix(1.21441 0 0 1.21402 -1.90735e-06 0)" d="M1261.33 803.896C1262.8 805.874 1266.51 815.777 1268.98 820.184L1270.24 824.804C1270.27 828.172 1270.24 828.738 1269.69 832.052L1268.5 832.404C1264.28 826.946 1262.46 811.159 1261.33 803.896Z"/><path fill="#5B62F4" transform="matrix(1.21441 0 0 1.21402 -1.90735e-06 0)" d="M1212.91 820.119C1216.93 817.804 1228.88 818.029 1233.55 818.923C1230.1 821.183 1217.03 821.58 1212.91 820.119Z"/><path fill="#B4B7FB" transform="matrix(1.21441 0 0 1.21402 -1.90735e-06 0)" d="M1241.73 813.544L1243.46 815.266C1247.59 831.019 1250.22 847.403 1253.83 863.305C1255.42 870.315 1260.55 885.214 1260.41 891.849L1259.08 890.574C1253.62 877.112 1234.39 831.905 1236.02 820.466C1239.11 817.953 1240 817.126 1241.73 813.544Z"/><path fill="#B4B7FB" transform="matrix(1.21441 0 0 1.21402 -1.90735e-06 0)" d="M1197.21 757.071C1200.77 751.121 1211.82 731.928 1216.61 727.959L1217.84 729.948C1217.81 737.523 1217.98 745.096 1218.33 752.662C1216.31 754.239 1201.72 756.101 1197.21 757.071Z"/><path fill="#050208" transform="matrix(1.21441 0 0 1.21402 -1.90735e-06 0)" d="M1430.95 565.163C1434.79 567.648 1436.7 565.996 1441.67 565.149C1454.82 562.905 1472.07 557.36 1485.05 556.207C1495.53 564.762 1516.22 588.152 1524.63 599.014C1523.21 599.42 1516.28 601.295 1515.37 601.736L1502.31 603.649C1495.52 606.373 1492.54 606.861 1489.68 613.742C1489 615.398 1488.37 617.075 1487.8 618.772C1485.45 628.033 1482.5 639.053 1478.45 647.688C1472.3 650.93 1469.92 651.192 1467.38 657.39C1468.43 660.102 1468.94 662.175 1470.95 664.259C1472.29 669.29 1472.41 671.087 1472.77 676.107C1473.85 679.61 1475.85 680.969 1478.53 683.522C1479.47 694.38 1474.07 706.904 1473.59 720.924C1472.52 752.732 1472.56 786.282 1472.45 817.992C1472.41 830.402 1472.56 881.063 1474.98 891.546C1475.79 908.198 1479.66 971.725 1470.95 981.426C1462.02 991.368 1441.21 989.345 1435.83 994.793C1434.39 996.247 1434.24 998.225 1433.99 1000.12C1435.13 1001.09 1437.17 1002.97 1438.35 1003.71L1437.42 1004.88C1438.99 1026.09 1418.56 1020.07 1417.44 1028.85C1412.25 1029.23 1409.88 1030.29 1405.08 1031.99C1399.17 1033.48 1389.3 1036.6 1383.79 1036.52C1381.03 1033.26 1373.69 987.084 1372.35 980.008C1359.96 981.918 1351.74 984.019 1340.03 979.467C1341.82 972.962 1340.32 968.224 1338.72 961.886C1339.44 960.251 1344.84 954.039 1346.67 953.196C1345.92 942.071 1346.49 927.109 1345.31 917.336L1344.48 919.491L1343.71 919.071L1343.28 916.633C1340.57 912.495 1332.22 910.987 1331.85 907.967C1329.05 885.617 1333.27 862.253 1331.05 839.837L1330.93 838.678C1330.51 830.459 1331.33 814.016 1331.54 805.147C1332.24 772.934 1334.04 740.754 1336.94 708.664C1337.3 701.513 1335.79 687.531 1338.23 683.323C1338.61 679.668 1336.98 667.12 1336.51 662.803C1330.76 655.067 1321.99 650.054 1318.54 643.919C1317.96 632.848 1336.28 635.372 1340.22 627.971C1339.17 618.914 1321.18 602.776 1323.17 597.756C1328.23 595.298 1332.79 595.332 1338.18 594.103C1359.87 589.162 1380.81 582.003 1402.09 575.602C1411.51 579.175 1422.03 564.723 1430.95 565.163Z"/><path fill="#050208" transform="matrix(1.21441 0 0 1.21402 -1.90735e-06 0)" d="M1430.95 565.163C1434.79 567.648 1436.7 565.996 1441.67 565.149C1454.82 562.905 1472.07 557.36 1485.05 556.207C1495.53 564.762 1516.22 588.152 1524.63 599.014C1523.21 599.42 1516.28 601.295 1515.37 601.736L1502.31 603.649C1495.52 606.373 1492.54 606.861 1489.68 613.742C1489 615.398 1488.37 617.075 1487.8 618.772C1485.45 628.033 1482.5 639.053 1478.45 647.688C1478.69 634.349 1472.91 630.02 1462.83 621.956C1457.33 634.672 1449.72 641.613 1437.07 647.652C1424.56 652.619 1396.95 654.515 1383.12 655.89C1368.92 657.388 1354.74 659.134 1340.6 661.128C1338.53 662.336 1338.67 662.596 1336.51 662.803C1330.76 655.067 1321.99 650.054 1318.54 643.919C1317.96 632.848 1336.28 635.372 1340.22 627.971C1339.17 618.914 1321.18 602.776 1323.17 597.756C1328.23 595.298 1332.79 595.332 1338.18 594.103C1359.87 589.162 1380.81 582.003 1402.09 575.602C1411.51 579.175 1422.03 564.723 1430.95 565.163Z"/><path fill="#FAD0B3" transform="matrix(1.21441 0 0 1.21402 -1.90735e-06 0)" d="M1430.95 565.163C1434.79 567.648 1436.7 565.996 1441.67 565.149C1454.82 562.905 1472.07 557.36 1485.05 556.207C1495.53 564.762 1516.22 588.152 1524.63 599.014C1523.21 599.42 1516.28 601.295 1515.37 601.736L1502.31 603.649C1495.52 606.373 1492.54 606.861 1489.68 613.742C1489 615.398 1488.37 617.075 1487.8 618.772C1485.45 628.033 1482.5 639.053 1478.45 647.688C1478.69 634.349 1472.91 630.02 1462.83 621.956C1464 617.725 1465.06 614.391 1466.47 610.256C1467.87 601.253 1469.21 590.73 1471.5 582.035C1473.14 574.699 1473.84 570.728 1478.01 564.28L1476.63 562.85C1469.12 563.402 1458.71 571.796 1450.94 573.696C1391.13 588.325 1339.45 578.957 1340.6 661.128C1338.53 662.336 1338.67 662.596 1336.51 662.803C1330.76 655.067 1321.99 650.054 1318.54 643.919C1317.96 632.848 1336.28 635.372 1340.22 627.971C1339.17 618.914 1321.18 602.776 1323.17 597.756C1328.23 595.298 1332.79 595.332 1338.18 594.103C1359.87 589.162 1380.81 582.003 1402.09 575.602C1411.51 579.175 1422.03 564.723 1430.95 565.163Z"/><path fill="#7F5638" transform="matrix(1.21441 0 0 1.21402 -1.90735e-06 0)" d="M1471.5 582.035C1477.37 584.17 1484.78 577.211 1490.23 581.039C1492.31 588.431 1489.69 598.02 1488.18 605.695C1492.34 605.059 1498.26 603.989 1502.31 603.649C1495.52 606.373 1492.54 606.861 1489.68 613.742C1489 615.398 1488.37 617.075 1487.8 618.772C1485.45 628.033 1482.5 639.053 1478.45 647.688C1478.69 634.349 1472.91 630.02 1462.83 621.956C1464 617.725 1465.06 614.391 1466.47 610.256C1467.87 601.253 1469.21 590.73 1471.5 582.035Z"/><path fill="#515151" transform="matrix(1.21441 0 0 1.21402 -1.90735e-06 0)" d="M1462.83 621.956C1464 617.725 1465.06 614.391 1466.47 610.256L1467.73 612.282C1472.75 612.377 1476.92 611.104 1481.82 609.965C1481.61 613.423 1480.7 619.348 1482.35 621.969C1485.51 621.602 1484.87 621.324 1487.8 618.772C1485.45 628.033 1482.5 639.053 1478.45 647.688C1478.69 634.349 1472.91 630.02 1462.83 621.956Z"/><path fill="#FAD0B3" transform="matrix(1.21441 0 0 1.21402 -1.90735e-06 0)" d="M1350.35 624.248C1364.42 584.123 1403.83 586.57 1438.7 579.358C1449.39 577.146 1459.47 573.298 1469.62 569.347C1466.87 579.148 1463.96 592.963 1462.49 603.036C1455.27 652.332 1423.24 647.741 1382.29 652.936C1369.85 654.624 1357.43 656.399 1345.01 658.262C1345.87 647.912 1346.46 639.719 1348.59 629.588L1350.35 624.248Z"/><path fill="#F5AE7F" transform="matrix(1.21441 0 0 1.21402 -1.90735e-06 0)" d="M1350.35 624.248L1351 625.112C1353.66 625.699 1369.94 620.015 1373.83 618.964C1395.7 613.042 1418.25 608.979 1440.44 604.453C1443.9 603.749 1446.36 606.014 1448.78 608.144L1444.21 618.947C1419.09 626.717 1389.55 636.575 1363.87 641.025L1348.59 629.588L1350.35 624.248Z"/><path fill="#FBFBFB" transform="matrix(1.21441 0 0 1.21402 -1.90735e-06 0)" d="M1448.78 608.144C1449.66 605.34 1449.74 604.161 1452.24 602.306L1454.04 602.602C1456 605.54 1455.77 609.322 1454.92 612.616C1451.84 624.591 1440.7 640.309 1427.43 640.148C1426.56 635.97 1440.9 623.497 1444.21 618.947L1448.78 608.144Z"/><path fill="#FBFBFB" transform="matrix(1.21441 0 0 1.21402 -1.90735e-06 0)" d="M1380.95 605.209C1392.17 599.724 1438.71 581.692 1448.59 589.131C1446.41 593.055 1389.12 609.211 1380.07 611.158L1380.95 605.209Z"/><path fill="#FEF6EB" transform="matrix(1.21441 0 0 1.21402 -1.90735e-06 0)" d="M1380.07 611.158C1375.98 612.13 1372.88 614.453 1369.04 614.159L1371.88 613.707L1370.06 612.991L1380.95 605.209L1380.07 611.158Z"/><path fill="#7F5638" transform="matrix(1.21441 0 0 1.21402 -1.90735e-06 0)" d="M1470.95 664.259C1472.29 669.29 1472.41 671.087 1472.77 676.107C1473.85 679.61 1475.85 680.969 1478.53 683.522C1479.47 694.38 1474.07 706.904 1473.59 720.924C1472.52 752.732 1472.56 786.282 1472.45 817.992C1472.41 830.402 1472.56 881.063 1474.98 891.546C1475.79 908.198 1479.66 971.725 1470.95 981.426C1462.02 991.368 1441.21 989.345 1435.83 994.793C1434.39 996.247 1434.24 998.225 1433.99 1000.12C1435.13 1001.09 1437.17 1002.97 1438.35 1003.71L1437.42 1004.88C1438.99 1026.09 1418.56 1020.07 1417.44 1028.85C1412.25 1029.23 1409.88 1030.29 1405.08 1031.99C1399.17 1033.48 1389.3 1036.6 1383.79 1036.52C1381.03 1033.26 1373.69 987.084 1372.35 980.008C1359.96 981.918 1351.74 984.019 1340.03 979.467C1341.82 972.962 1340.32 968.224 1338.72 961.886C1339.44 960.251 1344.84 954.039 1346.67 953.196C1353.87 965.164 1358.17 968.379 1372.63 969.856C1390.8 974.627 1424.64 975.62 1443.05 970.062C1446.98 965.846 1451.96 960.775 1452.83 954.947C1457.74 923.249 1453.54 891.802 1453.38 859.923C1453.16 813.999 1452.85 766.828 1455.29 720.955C1455.94 708.592 1460.15 691.754 1462.4 679.237C1464.59 681.691 1465.63 682.109 1468.64 681.339C1472.23 677.742 1470.92 669.627 1470.95 664.259Z"/><path fill="#FAD0B3" transform="matrix(1.21441 0 0 1.21402 -1.90735e-06 0)" d="M1338.72 961.886C1339.44 960.251 1344.84 954.039 1346.67 953.196C1353.87 965.164 1358.17 968.379 1372.63 969.856C1373.02 973.587 1372.88 973.936 1375.23 976.629C1385.11 982.259 1417.28 984.906 1429.62 985.777C1435.06 986.161 1447.06 983.919 1452.03 985.552C1448.83 993.508 1439.45 985.649 1432.85 994.25C1432.99 997.239 1433.13 997.377 1433.99 1000.12C1435.13 1001.09 1437.17 1002.97 1438.35 1003.71L1437.42 1004.88C1438.99 1026.09 1418.56 1020.07 1417.44 1028.85C1412.25 1029.23 1409.88 1030.29 1405.08 1031.99C1399.17 1033.48 1389.3 1036.6 1383.79 1036.52C1381.03 1033.26 1373.69 987.084 1372.35 980.008C1359.96 981.918 1351.74 984.019 1340.03 979.467C1341.82 972.962 1340.32 968.224 1338.72 961.886Z"/><path fill="#C69EAB" transform="matrix(1.21441 0 0 1.21402 -1.90735e-06 0)" d="M1405.08 1031.99L1405.21 1030.2L1402.68 1027.44C1405.01 1024.87 1433.13 1007.24 1437.42 1004.88C1438.99 1026.09 1418.56 1020.07 1417.44 1028.85C1412.25 1029.23 1409.88 1030.29 1405.08 1031.99Z"/><path fill="#DC9362" transform="matrix(1.21441 0 0 1.21402 -1.90735e-06 0)" d="M1462.83 621.956C1472.91 630.02 1478.69 634.349 1478.45 647.688C1472.3 650.93 1469.92 651.192 1467.38 657.39C1468.43 660.102 1468.94 662.175 1470.95 664.259C1470.92 669.627 1472.23 677.742 1468.64 681.339C1465.63 682.109 1464.59 681.691 1462.4 679.237C1463.3 675.009 1464.41 670.357 1465.13 666.133C1450.04 667.972 1431.73 668.859 1416.44 669.708C1393.45 670.984 1376.42 666.824 1358.29 684.905C1353.53 690.42 1350.57 695.161 1347.71 701.955C1344.18 700.083 1343.05 698.575 1340.06 699.47C1339.05 702.445 1338.07 705.799 1336.94 708.664C1337.3 701.513 1335.79 687.531 1338.23 683.323C1338.61 679.668 1336.98 667.12 1336.51 662.803C1338.67 662.596 1338.53 662.336 1340.6 661.128C1354.74 659.134 1368.92 657.388 1383.12 655.89C1396.95 654.515 1424.56 652.619 1437.07 647.652C1449.72 641.613 1457.33 634.672 1462.83 621.956Z"/><path fill="#7F5638" transform="matrix(1.21441 0 0 1.21402 -1.90735e-06 0)" d="M1462.83 621.956C1472.91 630.02 1478.69 634.349 1478.45 647.688C1472.3 650.93 1469.92 651.192 1467.38 657.39C1467.24 652.988 1468.73 651.527 1468.84 646.519C1466.23 646.544 1463 649.691 1460.74 651.46C1451.84 651.727 1445.41 650.976 1437.07 647.652C1449.72 641.613 1457.33 634.672 1462.83 621.956Z"/><path fill="#F5AE7F" transform="matrix(1.21441 0 0 1.21402 -1.90735e-06 0)" d="M1357.36 681.024L1358.29 684.905C1353.53 690.42 1350.57 695.161 1347.71 701.955C1344.18 700.083 1343.05 698.575 1340.06 699.47C1339.05 702.445 1338.07 705.799 1336.94 708.664C1337.3 701.513 1335.79 687.531 1338.23 683.323L1339.4 683.522C1339.22 685.671 1339.18 685.61 1339.65 687.7C1344.3 688.136 1352.98 683.191 1357.36 681.024Z"/><path fill="#FAD0B3" transform="matrix(1.21441 0 0 1.21402 -1.90735e-06 0)" d="M1338.78 666.14C1345.91 673.178 1349.77 675.369 1357.36 681.024C1352.98 683.191 1344.3 688.136 1339.65 687.7C1339.18 685.61 1339.22 685.671 1339.4 683.522C1340.95 678.756 1339.44 671.391 1338.78 666.14Z"/><path fill="#FAD0B3" transform="matrix(1.21441 0 0 1.21402 -1.90735e-06 0)" d="M1336.94 708.664C1338.07 705.799 1339.05 702.445 1340.06 699.47C1343.05 698.575 1344.18 700.083 1347.71 701.955C1338.16 729.989 1341.79 767.803 1342.55 797.821L1345.31 917.336L1344.48 919.491L1343.71 919.071L1343.28 916.633C1340.57 912.495 1332.22 910.987 1331.85 907.967C1329.05 885.617 1333.27 862.253 1331.05 839.837L1330.93 838.678C1330.51 830.459 1331.33 814.016 1331.54 805.147C1332.24 772.934 1334.04 740.754 1336.94 708.664Z"/><path fill="#F5AE7F" transform="matrix(1.21441 0 0 1.21402 -1.90735e-06 0)" d="M1423.35 671.689L1460.12 668.87C1458.37 676.378 1456.16 688.809 1454.32 695.361C1444.39 750.055 1449.71 814.057 1448.79 869.962C1448.35 896.094 1451.91 923.527 1449.2 949.875C1448.4 960.626 1445.09 966.612 1434.8 969.763C1428.28 971.189 1422.92 972.208 1416.16 971.473L1398.23 970.88C1389.67 970.054 1380.59 969.41 1372.22 967.642C1370.38 967.284 1368.56 966.841 1366.76 966.313C1356.72 963.356 1351.33 955.912 1351.08 945.624C1349.32 874.743 1347.29 803.808 1346.39 732.915C1346.28 724.594 1349.46 712.234 1351.78 704.383C1355.53 695.834 1357.47 692.019 1363.69 685.123C1368.51 680.517 1370.08 679.686 1375.93 676.326C1389.6 670.877 1399.06 673.011 1414.15 672.428L1423.35 671.689Z"/><path fill="#FAD0B3" transform="matrix(1.21441 0 0 1.21402 -1.90735e-06 0)" d="M1423.35 671.689L1460.12 668.87C1458.37 676.378 1456.16 688.809 1454.32 695.361C1444.39 750.055 1449.71 814.057 1448.79 869.962C1448.35 896.094 1451.91 923.527 1449.2 949.875C1448.4 960.626 1445.09 966.612 1434.8 969.763C1428.28 971.189 1422.92 972.208 1416.16 971.473C1417.58 968.519 1416.52 962.323 1416.18 958.857C1415.85 955.172 1415.83 955.047 1417.3 951.735C1425.51 939.667 1429.04 933.139 1430.04 918.483C1426.8 882.038 1426.67 845.609 1426.22 809.092L1424.19 703.654C1424.08 692.858 1424 682.471 1423.35 671.689Z"/><path fill="#F5AE7F" transform="matrix(1.21441 0 0 1.21402 -1.90735e-06 0)" d="M1423.35 671.689L1460.12 668.87C1458.37 676.378 1456.16 688.809 1454.32 695.361C1449.8 696.602 1445.75 697.938 1441.04 698.056L1439.46 696.306C1439.78 693.902 1440.66 689.897 1439.8 687.901C1438.28 692.298 1437.24 695.48 1436.09 700.021L1424.19 703.654C1424.08 692.858 1424 682.471 1423.35 671.689Z"/><path fill="#FBFBFB" transform="matrix(1.21441 0 0 1.21402 -1.90735e-06 0)" d="M1430.04 918.483L1430.29 917.082C1432.12 906.434 1431.76 896.097 1432.79 885.443C1433.33 879.906 1435.27 874.564 1435.89 868.761C1442.17 891.159 1441.2 925.647 1430.53 946.028C1425.97 952.345 1423.76 956.887 1416.18 958.857C1415.85 955.172 1415.83 955.047 1417.3 951.735C1425.51 939.667 1429.04 933.139 1430.04 918.483Z"/><path fill="#FBFBFB" transform="matrix(1.21441 0 0 1.21402 -1.90735e-06 0)" d="M1436.09 700.021C1437.24 695.48 1438.28 692.298 1439.8 687.901C1440.66 689.897 1439.78 693.902 1439.46 696.306C1437.11 702.368 1444.24 738.45 1437.56 746.514L1435.95 746.513C1432.7 732.53 1430.83 713.779 1436.09 700.021Z"/><path fill="#F5AE7F" transform="matrix(1.21441 0 0 1.21402 -1.90735e-06 0)" d="M1430.53 946.028C1433.95 952.579 1430.18 966.07 1434.8 969.763C1428.28 971.189 1422.92 972.208 1416.16 971.473C1417.58 968.519 1416.52 962.323 1416.18 958.857C1423.76 956.887 1425.97 952.345 1430.53 946.028Z"/><path fill="#FAD0B3" transform="matrix(1.21441 0 0 1.21402 -1.90735e-06 0)" d="M1392.66 716.18C1399.39 712.957 1407.2 710.045 1414.19 707.26C1414.26 741.486 1411.66 774.558 1411.13 808.625C1410.58 843.762 1413.45 879.874 1414.74 915.059C1414.96 920.987 1415.51 947.555 1417.3 951.735C1415.83 955.047 1415.85 955.172 1416.18 958.857C1416.52 962.323 1417.58 968.519 1416.16 971.473L1398.23 970.88C1400.18 936.104 1394.61 910.232 1394.04 877.602C1393.1 824.111 1392.67 769.637 1392.66 716.18Z"/><path fill="#FAD0B3" transform="matrix(1.21441 0 0 1.21402 -1.90735e-06 0)" d="M1351.78 704.383C1355.05 706.001 1362.03 709.717 1365.13 710.898C1365.21 788.743 1364.19 866.202 1371.73 943.718C1372.16 948.194 1374 964.567 1372.22 967.642C1370.38 967.284 1368.56 966.841 1366.76 966.313C1356.72 963.356 1351.33 955.912 1351.08 945.624C1349.32 874.743 1347.29 803.808 1346.39 732.915C1346.28 724.594 1349.46 712.234 1351.78 704.383Z"/><path fill="#DC9362" transform="matrix(1.21441 0 0 1.21402 -1.90735e-06 0)" d="M1363.69 685.123C1368.51 680.517 1370.08 679.686 1375.93 676.326C1382 679.555 1388.01 682.879 1393.98 686.296C1392.29 694.868 1394.74 710.628 1390.13 716.411C1383.75 719.884 1371.65 713.577 1365.13 710.898C1362.03 709.717 1355.05 706.001 1351.78 704.383C1355.53 695.834 1357.47 692.019 1363.69 685.123Z"/><path fill="#F5AE7F" transform="matrix(1.21441 0 0 1.21402 -1.90735e-06 0)" d="M1363.69 685.123C1365.5 689.582 1365.04 705.079 1365.13 710.898C1362.03 709.717 1355.05 706.001 1351.78 704.383C1355.53 695.834 1357.47 692.019 1363.69 685.123Z"/><path fill="#DC9362" transform="matrix(1.21441 0 0 1.21402 -1.90735e-06 0)" d="M1414.15 672.428L1423.35 671.689C1424 682.471 1424.08 692.858 1424.19 703.654L1414.21 706.867L1414.15 672.428Z"/><defs><linearGradient id="gradient_0" gradientUnits="userSpaceOnUse" x1="1482.2783" y1="740.12994" x2="1529.0452" y2="745.45172"><stop offset="0" stop-color="#B4B6F1" stop-opacity="0.73333335"/><stop offset="1" stop-color="#B7B9F4" stop-opacity="0.78823531"/></linearGradient></defs><path fill="url(#gradient_0)" transform="matrix(1.21441 0 0 1.21402 -1.90735e-06 0)" d="M1472.77 676.107C1484.79 679.746 1483.66 684.277 1482.41 695.725L1492.59 701.218C1504.81 708.918 1516.64 717.234 1528.02 726.133C1527.96 748.775 1528.31 763.505 1530.39 786.165C1514.5 783.374 1507.83 779.878 1493.25 772.657C1488.52 770.075 1482.52 766.347 1477.38 765.432L1475.56 766.018C1473.84 774.494 1475.11 794.044 1474.84 803.674C1474.06 831.648 1476.15 863.921 1474.98 891.546C1472.56 881.063 1472.41 830.402 1472.45 817.992C1472.56 786.282 1472.52 752.732 1473.59 720.924C1474.07 706.904 1479.47 694.38 1478.53 683.522C1475.85 680.969 1473.85 679.61 1472.77 676.107Z"/><defs><linearGradient id="gradient_1" gradientUnits="userSpaceOnUse" x1="1490.3733" y1="875.46887" x2="1481.4572" y2="875.51611"><stop offset="0" stop-color="white" stop-opacity="0"/><stop offset="1" stop-color="#F8F8F8" stop-opacity="0.035294119"/></linearGradient></defs><path fill="url(#gradient_1)" transform="matrix(1.21441 0 0 1.21402 -1.90735e-06 0)" d="M1474.98 891.546C1476.15 863.921 1474.06 831.648 1474.84 803.674C1475.11 794.044 1473.84 774.494 1475.56 766.018L1477.38 765.432C1482.52 766.347 1488.52 770.075 1493.25 772.657L1488.96 775C1488.36 786.586 1492.02 798.008 1492.37 809.863C1492.89 827.38 1491.13 844.186 1491.2 861.695L1491.55 917.514C1491.58 926.373 1491.95 938.339 1491.06 947.098C1490.12 956.323 1485.72 967.462 1483.7 976.579C1483.23 978.279 1474.02 985.932 1472.1 987.282C1465.49 989.854 1441.57 996.398 1439.19 999.521C1441.08 1002.81 1444.72 1001.95 1448.37 1001.93C1445.24 1002.55 1441.46 1003.42 1438.35 1003.71C1437.17 1002.97 1435.13 1001.09 1433.99 1000.12C1434.24 998.225 1434.39 996.247 1435.83 994.793C1441.21 989.345 1462.02 991.368 1470.95 981.426C1479.66 971.725 1475.79 908.198 1474.98 891.546Z"/><defs><linearGradient id="gradient_2" gradientUnits="userSpaceOnUse" x1="1092.9702" y1="779.48816" x2="1068.0516" y2="779.50256"><stop offset="0" stop-color="white" stop-opacity="0"/><stop offset="1" stop-color="#F7F7F7" stop-opacity="0.031372551"/></linearGradient></defs><path fill="url(#gradient_2)" transform="matrix(1.21441 0 0 1.21402 -1.90735e-06 0)" d="M1036.88 676.654C1046.2 675.777 1048.76 680.04 1055.65 682.793C1088.56 695.941 1084.42 727.015 1087.63 756.167C1087.88 758.398 1088.08 758.097 1087.77 760.567L1085.37 762.589C1085.37 769.325 1086.19 774.074 1087.18 780.761C1085.51 781.48 1086.34 781.266 1084.73 781.481C1084.6 786.666 1087.32 812.342 1086.86 813.487L1084.91 813.532L1085.21 815.613L1087.32 815.64C1088.51 820.853 1086.66 825.249 1088.54 828.145L1090.54 826.438C1093.68 831.626 1093.82 835.397 1093.78 841.334C1088.32 855.608 1081.97 869.522 1074.75 882.991C1073.29 884.824 1071.96 886.389 1070.42 888.147L1069.02 887.744C1067.45 880.546 1067.75 862.389 1067.79 854.588C1067.85 835.699 1068.33 816.812 1069.23 797.944C1070.78 761.985 1080.16 702.174 1044.07 681.035C1042.23 680.148 1038.76 677.825 1036.88 676.654Z"/><path fill="#FBFBFB" fill-opacity="0.015686275" transform="matrix(1.21441 0 0 1.21402 -1.90735e-06 0)" d="M949.759 958.522C952.702 958.783 953.691 959.116 956.418 957.915C958.354 952.621 954.431 954.986 955.595 947.977L957.504 946.7C958.003 947.749 959.719 951.227 960.604 951.73C986.648 966.518 1008.43 986.121 1039.11 990.389C1047.19 991.513 1057.97 997.545 1065.79 994.438C1076.93 991.081 1087.28 991.057 1098.74 989.298C1110.72 987.461 1119.81 983.642 1130.76 978.966C1133.44 982.462 1135.83 984.955 1138.83 988.126L1144.07 995.693C1131.38 992.759 1121.43 997.7 1107.76 1000.56C1080.26 1006.45 1053.24 1004.93 1025.9 999.371C1013.57 996.865 982.487 974.194 972.736 977.086C970.9 980.484 971.447 983.745 971.52 987.738C964.279 979.776 956.009 967.427 949.759 958.522Z"/><path fill="#FAD0B3" transform="matrix(1.21441 0 0 1.21402 -1.90735e-06 0)" d="M1031.58 603.312C1033.91 602.94 1036.13 603.126 1038.78 604.848C1049.79 612 1072.64 627.26 1077.9 638.472C1080.53 644.092 1049.65 645.544 1044.75 645.929C1034.12 646.337 1003.69 617.141 996.877 608.095C1008.21 606.954 1020.25 604.981 1031.58 603.312Z"/><path fill="#B4B7FB" transform="matrix(1.21441 0 0 1.21402 -1.90735e-06 0)" d="M1372.24 530.163C1376.5 526.608 1392.65 513.504 1396.37 516.002C1407.61 523.55 1425.8 553.908 1430.95 565.163C1422.03 564.723 1411.51 579.175 1402.09 575.602C1394.07 562.07 1381.55 545.432 1372.24 530.163Z"/><path fill="#FBFBFB" fill-opacity="0.0078431377" transform="matrix(1.21441 0 0 1.21402 -1.90735e-06 0)" d="M1582.33 715.005C1610.18 714.013 1594.63 741.991 1594.13 758.208C1593.99 763.008 1596.58 774.65 1595.17 778.384C1591.23 781.019 1590.11 780.727 1590.71 785.364C1592.94 785.673 1592.19 785.289 1593.89 786.549L1590.57 787.056C1588.68 789.156 1588.84 790.654 1588.48 793.526L1588.34 794.673C1588.09 795.708 1588.36 795.134 1587.06 796.083C1582.81 792.102 1582.79 792.933 1577.43 793.324C1571.83 789.367 1576.87 786.608 1575.99 781.38C1572.61 767.109 1574.26 757.785 1575.55 744.123C1576.41 735.093 1582.05 721.057 1582.33 715.005Z"/><path fill="#B4B7FB" transform="matrix(1.21441 0 0 1.21402 -1.90735e-06 0)" d="M1206.37 564.908C1222.85 569.339 1241.69 587.151 1256.69 596.852C1256.69 603.737 1256.24 610.902 1255.9 617.801C1246.97 620.917 1214.98 594.927 1208.37 588.039C1207.29 580.841 1206.89 572.264 1206.37 564.908Z"/><path fill="#FBFBFB" fill-opacity="0.015686275" transform="matrix(1.21441 0 0 1.21402 -1.90735e-06 0)" d="M1502.31 603.649L1515.37 601.736C1511.71 607.227 1504.67 611.186 1501.55 617.708C1496.77 627.728 1494.89 639.189 1489.09 648.755C1487.28 651.695 1478.91 657.329 1479.21 660.09C1479.9 666.391 1492.54 672.084 1493.52 677.661C1494.82 685.017 1490.59 692.908 1492.59 701.218L1482.41 695.725C1483.66 684.277 1484.79 679.746 1472.77 676.107C1472.41 671.087 1472.29 669.29 1470.95 664.259C1468.94 662.175 1468.43 660.102 1467.38 657.39C1469.92 651.192 1472.3 650.93 1478.45 647.688C1482.5 639.053 1485.45 628.033 1487.8 618.772C1488.37 617.075 1489 615.398 1489.68 613.742C1492.54 606.861 1495.52 606.373 1502.31 603.649Z"/><path fill="#B4B7FB" transform="matrix(1.21441 0 0 1.21402 -1.90735e-06 0)" d="M1468.11 999.061C1474.31 998.984 1484.66 998.203 1490.11 1000.64L1491.02 1002.06C1485.24 1010.25 1454.42 1027.31 1442.97 1028.13C1435.6 1028.65 1425.14 1030.61 1417.87 1028.94L1417.44 1028.85C1418.56 1020.07 1438.99 1026.09 1437.42 1004.88L1438.35 1003.71C1441.46 1003.42 1445.24 1002.55 1448.37 1001.93C1454.94 1001.26 1461.58 1000.11 1468.11 999.061Z"/><path fill="#FAD0B3" transform="matrix(1.21441 0 0 1.21402 -1.90735e-06 0)" d="M977.429 995.906C975.349 998.182 968.62 1006.96 965.326 1003.88C953.564 992.849 941.904 979.605 932.874 966.258C930.793 963.181 929.019 955.896 932.363 953.072C940.863 945.896 944.931 952.012 949.759 958.522C956.009 967.427 964.279 979.776 971.52 987.738L977.429 995.906Z"/><path fill="#FBFBFB" fill-opacity="0.019607844" transform="matrix(1.21441 0 0 1.21402 -1.90735e-06 0)" d="M1183.73 906.734C1186.42 902.352 1189.47 894.522 1194.93 895.25L1199.5 904.309C1203.91 913.504 1209.61 925.588 1213.37 934.945C1211.26 936.058 1210.71 936.198 1209.63 938.343C1202.8 937.167 1202.84 929.98 1189.49 933.905C1186.87 938.756 1189.82 939.59 1182.52 942.386L1179.11 941.889C1180.61 940.905 1180.2 941.122 1181.36 939.642C1181.03 936.728 1180.75 936.771 1178.83 934.634C1172.04 922.137 1177.19 918.114 1183.73 906.734Z"/><path fill="#8186F8" fill-opacity="0.97254902" transform="matrix(1.21441 0 0 1.21402 -1.90735e-06 0)" d="M962 919.808L962.349 920.545C974.029 945.678 973.139 959.61 1005.32 970.95C1006.47 971.356 1006.87 971.511 1008.18 971.767C1017.69 985.751 1061.14 986.148 1077.14 987.342C1073.9 989.344 1068.75 992.323 1065.79 994.438C1057.97 997.545 1047.19 991.513 1039.11 990.389C1008.43 986.121 986.648 966.518 960.604 951.73C959.719 951.227 958.003 947.749 957.504 946.7L967.062 940.18C965.657 933.34 963.423 927.308 962 919.808Z"/><path fill="#FBFBFB" fill-opacity="0.0078431377" transform="matrix(1.21441 0 0 1.21402 -1.90735e-06 0)" d="M1281.74 685.253C1283.77 685.335 1288.96 685.352 1290.15 686.874C1294.67 692.627 1297.17 702.245 1297.6 709.476C1298.29 720.983 1297.98 733.435 1297.57 745.054C1297.18 755.922 1298.3 769.635 1297 780.19C1295.29 773.868 1294.68 763.43 1293.85 756.743C1290.77 731.612 1291.41 709.065 1281.74 685.253Z"/><path fill="#FBFBFB" fill-opacity="0.015686275" transform="matrix(1.21441 0 0 1.21402 -1.90735e-06 0)" d="M1448.37 1001.93C1444.72 1001.95 1441.08 1002.81 1439.19 999.521C1441.57 996.398 1465.49 989.854 1472.1 987.282C1468.12 991.668 1460.66 995.049 1455.11 997.089L1454.98 997.755C1457.65 999.029 1464.49 998.628 1468.11 999.061C1461.58 1000.11 1454.94 1001.26 1448.37 1001.93Z"/></svg>