<svg viewBox="942.842 502.226 603.0360000000001 578.7239999999999" xmlns:xlink="http://www.w3.org/1999/xlink" xmlns="http://www.w3.org/2000/svg" width="600" height="600"><path d="M857.623 707.127C878.795 680.719 888.908 654.306 901.009 623.196C901.982 620.697 903.115 619.681 905.297 618.471C918.47 621.034 939.989 637.7 950.211 646.878C953.87 650.163 955.344 652.178 953.514 656.732L953.008 658.173L956.336 660.076L961.898 662.375C970.131 665.236 978.733 668.382 987.045 670.887C991.859 667.274 993.521 666.472 998.962 663.859C1014.41 667.467 1024.04 669.584 1038.79 675.736C1054.14 683.736 1068.76 698.52 1069.94 716.745C1073.6 732.006 1072.17 753.328 1071.69 769.099C1070.71 801.615 1066.09 839.415 1070.2 871.614C1070.42 873.977 1071.79 880.398 1072.28 883.085C1077.62 875.958 1085.84 858.686 1089.83 850.296C1105.75 816.828 1118.19 783.31 1135.67 750.34C1150.13 723.003 1173.3 687.605 1190.84 661.845C1200.53 662.649 1209.83 666.078 1219.5 666.024C1222.05 664.728 1221.47 662.624 1223.36 658.421C1233.56 651.372 1267.03 658.896 1280.19 661.006L1282.58 662.335C1283.24 668.062 1281.13 676.397 1281.57 683.53C1296.01 705.539 1292.14 734.578 1295.62 758.556C1300.07 789.276 1315.84 882.439 1330.49 904.53C1326.44 904.039 1327.87 903.627 1324.8 905.587C1323.56 911.811 1332.49 921.133 1336.38 925.969C1336.97 929.761 1337.27 932.263 1337.42 936.11C1337.7 942.856 1334.2 949.63 1336.53 955.548C1337.3 957.71 1338.02 959.768 1338.71 961.963C1341.02 971.056 1341.78 972.241 1338.69 981.178C1331.19 987.117 1308.47 999.482 1298.45 1003.89C1283.78 1010.35 1291.09 960.78 1261.11 980.586C1258.71 982.169 1242.52 989.102 1239.24 990.479C1236.33 983.957 1233.05 975.107 1230.37 968.404C1221.56 947.716 1209.98 924.539 1200.26 904.04C1198.91 902.137 1199.34 902.638 1198.75 900.169C1197.36 898.91 1195.57 896.651 1193.91 896.747C1185.94 897.209 1177.84 914.983 1174.43 920.758C1176.57 927.775 1177.35 929.816 1180.76 936.291L1181.4 938.063C1180.02 940.51 1178.23 941.405 1175.91 943.02C1175.17 945.41 1175.13 945.477 1176.96 948.476C1185.67 962.748 1195.54 976.931 1204.5 991.037C1205.81 993.85 1207.29 996.877 1208.49 999.706C1186.3 1005.43 1181.04 1010.67 1162.39 1017.48C1158.92 1013.91 1148.99 1000.68 1146.67 998.858C1144.76 995.748 1141.96 991.997 1139.81 988.939C1136.49 985.974 1133.62 981.685 1130.92 978.054C1102.82 991.377 1086.31 988.056 1057.94 995.483C1035.46 987.498 1003.76 985.172 984.733 965.632C975.659 964.277 959.012 958.021 957.818 947.518C960.461 946.354 960.379 946.237 962.252 944.198C964.434 936.228 958.779 915.559 958.054 905.076L957.972 903.775C957.653 900.01 957.876 897.308 955.716 894.331C948.671 893.907 929.891 895.003 928.008 887.243C921.479 861.93 931.189 726.055 924.314 717.142C908.384 738.866 908.644 742.903 883.221 725.838C874.204 719.785 866.047 714.282 857.623 707.127Z" transform="matrix(1.01398 0 0 1.01402 0 -1.90735e-06)" fill="#050208"/><path d="M1190.84 661.845C1200.53 662.649 1209.83 666.078 1219.5 666.024C1222.05 664.728 1221.47 662.624 1223.36 658.421C1233.56 651.372 1267.03 658.896 1280.19 661.006C1282.46 664.98 1279.67 678.41 1280.24 686.218L1280.56 690.967C1273.27 688.354 1274.33 687.424 1266.21 686.334C1259.87 674.338 1251.71 673.947 1239.78 676.332C1226.08 683.367 1218.84 691.587 1207.13 699.909C1197.99 709.449 1189.49 717.145 1180.98 727.729C1156.3 758.419 1138.3 792.659 1121.68 828.05C1115.08 842.097 1099.22 877.674 1090.69 888.904C1084.58 892.138 1080.24 893.588 1073.31 893.882C1073.82 893.86 1071.87 896.555 1070.15 897.278L1069.25 896.31C1067.46 890.286 1064.08 871.033 1066.28 865.515C1068.57 867.141 1068.73 868.135 1069.83 870.717L1070.2 871.614C1070.42 873.977 1071.79 880.398 1072.28 883.085C1077.62 875.958 1085.84 858.686 1089.83 850.296C1105.75 816.828 1118.19 783.31 1135.67 750.34C1150.13 723.003 1173.3 687.605 1190.84 661.845Z" transform="matrix(1.01398 0 0 1.01402 0 -1.90735e-06)" fill="#B4B7FA"/></svg>
